
<svg width="40px" height="66px" viewBox="0 0 40 66" version="1.1" xmlns="http://www.w3.org/2000/svg" xmlns:xlink="http://www.w3.org/1999/xlink">
    <!-- Generator: Sketch 49 (51002) - http://www.bohemiancoding.com/sketch -->
    <desc>Created with Sketch.</desc>
    <defs></defs>
    <g id="Page-1" stroke="none" stroke-width="1" fill="none" fill-rule="evenodd">
        <g id="Group" transform="translate(1.000000, 0.000000)">
            <polygon id="Path-3" stroke="#1E1BC3" fill="#1E1BC3" points="16.7158508 60.8140259 25.612793 37.8134766 22.90979 1.69873047"></polygon>
            <polygon id="Path-9" stroke="#1E1BC3" fill="#1E1BC3" points="21.349589 4.8032717 24.1669319 4.73808618 22.9178611 1.73324154"></polygon>
            <polygon id="Path" stroke="#176FFC" fill="#176FFC" points="22.1689453 3.13134766 1.16796875 43.2138672 15.4833984 63.1489258"></polygon>
            <polygon id="Path-2" stroke="#2759D6" fill="#2759D6" points="16.6233521 63.7134094 30.8354492 59.1196289 25.1118164 39.1728516"></polygon>
            <polygon id="Path-4" stroke="#2E23DE" fill="#2E23DE" points="31.4376831 57.6549072 37.3300781 37.0991211 25.462616 37.6126099"></polygon>
            <polygon id="Path-5" stroke="#3347F6" fill="#3347F6" points="25.5371094 37.3135986 37.2810669 36.1473083 23.6190186 3.46496582"></polygon>
            <polygon id="Path-6" stroke="#51ACFD" fill="#51ACFD" points="18.1459961 38.201416 19.5791016 25.8056641 10.2514648 26.7993164"></polygon>
            <polygon id="Path-7" stroke="#51ACFD" fill="#51ACFD" points="23.6177368 3.42251587 24.4331665 18.0653687 27.288208 12.2532349"></polygon>
            <path d="" id="Path-8" stroke="#979797"></path>
            <path d="M0.388134496,43.8247836 L14.8049353,63.7857801 C15.311323,64.4869068 16.2110098,64.7831041 17.0348689,64.5199249 L30.2859943,60.286895 C31.2400642,59.9821204 31.9791103,59.2213286 32.256097,58.2588239 L38.2203539,37.5335492 C38.4088517,36.8785355 38.3686807,36.1788584 38.1064551,35.5497223 L23.8307211,1.29914226 C23.6182448,0.789365576 23.0327431,0.54835599 22.5229664,0.760832285 C22.3071185,0.850798266 22.1296257,1.01356474 22.0213472,1.22083261 L0.312462037,42.776247 C0.13711738,43.1118939 0.16641095,43.5177929 0.388134496,43.8247836 Z" id="Path-10" stroke="#FFFFFF"></path>
        </g>
    </g>
</svg>
